{"glyphs":{":":{"x_min":0,"x_max":289,"ha":289,"o":""},"$":{"x_min":0,"x_max":441,"ha":441,"o":"m 260 -2 q 254 -4 254 -8 l 250 -60 q 249 -65 246 -68 q 242 -72 237 -72 l 141 -72 q 130 -72 130 -60 l 138 -4 q 139 0 135 1 q 84 17 55 56 q 26 96 26 151 q 26 160 28 178 l 31 209 q 32 214 36 218 q 40 221 45 221 l 180 221 q 191 221 191 209 l 188 186 l 187 176 q 187 157 196 146 q 206 134 221 134 q 240 134 254 150 q 267 165 267 190 q 267 209 252 227 q 236 245 192 281 q 150 315 125 340 q 100 365 82 402 q 63 438 63 485 q 63 565 107 623 q 151 681 222 700 q 226 701 226 705 l 233 769 q 234 774 238 778 q 241 781 246 781 l 340 781 q 351 781 351 769 l 342 707 q 342 702 345 701 q 401 686 432 644 q 464 601 464 540 q 464 532 462 512 l 459 488 q 458 483 454 480 q 450 476 445 476 l 311 476 q 300 476 300 488 l 304 516 q 306 538 296 552 q 287 566 269 566 q 250 566 236 549 q 223 532 223 506 q 223 485 238 466 q 254 446 295 412 q 346 369 372 342 q 397 316 412 286 q 428 255 428 216 q 428 208 426 188 q 416 114 372 64 q 327 13 260 -2 z"},"?":{"x_min":0,"x_max":448,"ha":448,"o":"m 141 241 l 144 265 q 151 319 176 350 q 202 382 246 415 q 282 442 298 462 q 315 482 315 512 q 315 534 304 546 q 294 559 275 559 q 251 559 235 542 q 219 524 215 496 l 214 485 q 213 474 201 474 l 64 480 q 59 480 56 484 q 53 488 54 493 l 54 496 q 62 559 96 608 q 129 656 182 683 q 234 710 298 710 q 383 710 432 664 q 480 617 480 539 q 480 529 478 509 q 472 464 456 432 q 439 401 418 381 q 398 361 368 338 q 338 315 322 298 q 306 280 303 255 l 301 241 q 300 236 296 232 q 293 229 288 229 l 151 229 q 146 229 143 232 q 140 236 141 241 z m 117 71 q 117 114 144 142 q 172 170 212 170 q 246 170 266 150 q 287 130 287 96 q 287 54 258 25 q 230 -4 191 -4 q 158 -4 138 17 q 117 38 117 71 z"},"<":{"x_min":0,"x_max":424,"ha":424,"o":"m 377 51 l 36 218 q 29 222 29 232 l 44 354 q 46 363 55 368 l 436 535 q 440 537 442 537 q 451 537 449 526 l 432 393 q 432 383 422 379 l 199 296 q 193 293 199 290 l 401 207 q 409 203 408 193 l 391 60 q 390 53 386 50 q 382 48 377 51 z"},"'":{"x_min":0,"x_max":182,"ha":182,"o":"m 65 478 l 77 688 q 77 700 89 700 l 226 700 q 232 700 234 697 q 237 694 236 688 l 193 477 q 192 472 188 469 q 184 466 179 466 l 77 466 q 67 466 65 478 z"},"=":{"x_min":0,"x_max":424,"ha":424,"o":""},"a":{"x_min":0,"x_max":439,"ha":439,"o":"m 306 517 l 444 517 q 449 517 452 514 q 455 510 454 505 l 393 12 q 392 7 388 4 q 385 0 380 0 l 242 0 q 237 0 234 4 q 231 7 232 12 l 236 38 q 236 42 234 42 q 232 42 230 39 q 196 -8 136 -8 q 21 -8 21 121 q 21 143 24 165 l 47 352 q 69 525 201 525 q 261 525 284 477 q 285 473 287 474 q 289 474 290 478 l 293 505 q 294 510 298 514 q 301 517 306 517 z m 253 178 l 272 339 q 273 342 273 349 q 273 364 265 374 q 257 383 244 383 q 230 383 220 371 q 209 359 207 339 l 187 178 q 185 158 192 146 q 199 134 213 134 q 229 134 240 146 q 251 158 253 178 z"},"L":{"x_min":0,"x_max":423,"ha":423,"o":"m 16 12 l 99 688 q 100 693 104 696 q 107 700 112 700 l 250 700 q 255 700 258 696 q 261 693 260 688 l 194 147 q 192 142 198 142 l 396 142 q 401 142 404 138 q 407 135 406 130 l 391 12 q 391 7 387 4 q 383 0 378 0 l 26 0 q 21 0 18 4 q 15 7 16 12 z"},"3":{"x_min":0,"x_max":432,"ha":432,"o":"m 418 225 l 408 160 q 395 85 338 38 q 280 -8 197 -8 q 116 -8 68 34 q 19 75 19 143 q 19 156 20 163 q 21 180 25 216 q 27 228 38 228 l 175 228 q 186 228 186 218 q 186 207 184 196 q 183 186 183 177 q 183 157 191 146 q 199 135 214 135 q 230 135 242 146 q 253 158 258 178 l 267 243 l 269 265 q 272 289 272 312 q 272 329 264 339 q 255 349 241 349 q 225 349 206 333 q 200 329 197 329 q 195 329 189 333 l 128 409 q 125 414 125 417 q 125 421 130 426 l 260 553 q 265 559 259 559 l 92 559 q 87 559 84 562 q 81 566 82 571 l 96 688 q 97 693 100 696 q 104 700 109 700 l 463 700 q 468 700 471 696 q 474 693 473 688 l 459 567 q 458 560 451 553 l 331 428 q 327 422 332 422 q 375 419 400 380 q 426 341 422 286 q 422 267 418 225 z"},";":{"x_min":0,"x_max":238,"ha":238,"o":"m 55 384 q 55 413 70 438 q 86 464 111 479 q 136 494 161 494 q 194 494 218 470 q 242 445 242 409 q 242 365 211 333 q 180 301 137 301 q 101 301 78 325 q 55 349 55 384 z m 3 -92 l 48 146 q 49 151 53 154 q 57 158 62 158 l 181 158 q 187 158 190 154 q 193 151 190 145 l 110 -93 q 107 -104 96 -104 l 12 -104 q 0 -104 3 -92 z"},"J":{"x_min":0,"x_max":448,"ha":448,"o":"m 12 158 q 12 166 14 186 l 22 251 q 23 256 26 260 q 30 263 35 263 l 173 263 q 178 263 181 260 q 184 256 183 251 l 175 184 l 174 174 q 174 156 184 145 q 193 134 209 134 q 227 134 240 148 q 254 162 256 184 l 318 688 q 319 693 322 696 q 326 700 331 700 l 469 700 q 474 700 477 696 q 480 693 479 688 l 418 186 q 407 99 344 46 q 282 -8 191 -8 q 109 -8 60 37 q 12 82 12 158 z"},"V":{"x_min":0,"x_max":490,"ha":490,"o":"m 138 11 l 83 687 q 83 700 95 700 l 245 700 q 256 700 256 689 l 263 290 q 263 286 266 286 q 268 287 268 290 l 369 689 q 372 700 383 700 l 529 700 q 541 700 537 687 l 316 11 q 313 0 302 0 l 149 0 q 144 0 141 3 q 138 6 138 11 z"},"\"":{"x_min":0,"x_max":374,"ha":374,"o":"m 65 477 l 77 687 q 77 699 89 699 l 218 699 q 230 699 227 687 l 187 477 q 186 472 182 468 q 178 465 173 465 l 76 465 q 71 465 68 468 q 65 472 65 477 z m 265 477 l 276 687 q 276 699 289 699 l 418 699 q 430 699 427 687 l 385 477 q 384 472 380 468 q 376 465 371 465 l 276 465 q 271 465 268 468 q 265 472 265 477 z"},"7":{"x_min":0,"x_max":409,"ha":409,"o":"m 56 14 l 278 552 q 281 558 275 558 l 193 558 q 189 558 187 553 l 183 519 q 182 514 178 510 q 175 507 170 507 l 63 507 q 58 507 55 510 q 52 514 53 519 l 75 688 q 76 693 80 696 q 83 700 88 700 l 456 700 q 461 700 464 696 q 468 693 467 688 l 452 565 l 448 551 l 223 10 q 220 0 210 0 l 64 0 q 58 0 56 4 q 54 8 56 14 z"},"S":{"x_min":0,"x_max":441,"ha":441,"o":"m 26 151 q 26 160 28 178 l 31 209 q 32 214 36 218 q 40 221 45 221 l 180 221 q 191 221 191 209 l 188 186 l 187 176 q 187 157 196 146 q 206 134 221 134 q 240 134 254 150 q 267 165 267 190 q 267 209 252 227 q 236 245 192 281 q 150 315 125 340 q 100 365 82 402 q 63 438 63 485 q 63 550 92 601 q 121 652 172 680 q 223 708 287 708 q 368 708 416 662 q 464 617 464 541 q 464 532 462 512 l 459 488 q 458 483 454 480 q 450 476 445 476 l 311 476 q 300 476 300 488 l 304 516 q 306 538 296 552 q 287 566 269 566 q 250 566 236 549 q 223 532 223 506 q 223 485 238 466 q 254 446 295 412 q 346 369 372 342 q 397 316 412 286 q 428 255 428 216 q 428 208 426 188 q 415 98 354 45 q 292 -8 203 -8 q 121 -8 74 36 q 26 79 26 151 z"},"}":{"x_min":0,"x_max":359,"ha":359,"o":"m 1 -156 q -4 -156 -7 -152 q -10 -149 -9 -144 l 6 -25 q 7 -20 10 -16 q 14 -13 19 -13 l 34 -13 q 53 -13 68 4 q 83 21 86 46 l 105 199 q 117 296 177 326 q 182 329 177 332 q 135 356 135 426 q 135 435 137 459 l 155 608 q 158 633 147 650 q 136 667 118 667 l 102 667 q 97 667 94 670 q 91 674 92 679 l 107 798 q 108 803 112 806 q 115 810 120 810 l 213 810 q 266 810 296 782 q 326 754 326 705 q 326 691 325 683 l 301 483 q 299 467 299 460 q 299 400 347 395 q 359 394 357 382 l 344 276 q 342 264 331 263 q 274 257 263 174 l 238 -29 q 230 -88 192 -122 q 154 -156 94 -156 z"},"Z":{"x_min":0,"x_max":406,"ha":406,"o":"m -2 12 l 13 134 q 13 138 15 142 q 17 147 18 149 l 264 552 q 265 555 264 556 q 263 558 261 558 l 76 558 q 71 558 68 562 q 65 565 66 570 l 81 688 q 81 693 85 696 q 89 700 94 700 l 443 700 q 448 700 451 696 q 454 693 453 688 l 438 566 q 437 559 432 551 l 185 148 q 182 142 188 142 l 374 142 q 385 142 385 130 l 370 12 q 369 7 366 4 q 362 0 357 0 l 8 0 q 3 0 0 4 q -3 7 -2 12 z"},"x":{"x_min":0,"x_max":448,"ha":448,"o":"m -3 14 l 135 256 q 137 259 136 262 l 57 503 q 56 505 56 508 q 56 517 67 517 l 217 517 q 228 517 229 508 l 253 416 q 255 409 259 416 l 305 508 q 310 517 320 517 l 469 517 q 476 517 478 514 q 480 510 476 503 l 338 262 q 336 259 337 256 l 416 14 q 417 12 417 9 q 417 0 405 0 l 256 0 q 246 0 244 9 l 220 104 q 220 107 218 107 q 216 107 215 104 l 168 9 q 164 0 153 0 l 4 0 q -3 0 -5 4 q -7 7 -3 14 z"},")":{"x_min":0,"x_max":333,"ha":333,"o":"m 288 750 q 360 619 360 447 q 360 392 353 336 q 322 88 185 -80 q 181 -87 171 -87 l 36 -87 q 29 -87 27 -83 q 25 -79 29 -73 q 81 15 119 113 q 157 211 172 335 q 180 404 180 454 q 180 539 166 608 q 152 678 129 743 l 128 747 q 128 751 132 754 q 135 757 140 757 l 275 757 q 285 757 288 750 z"},"&":{"x_min":0,"x_max":605,"ha":605,"o":"m 560 8 q 560 5 557 2 q 554 0 549 0 l 400 0 q 390 0 386 7 l 370 30 q 369 34 364 32 q 286 -10 200 -10 q 116 -10 68 28 q 21 67 21 141 q 21 150 23 172 q 31 236 62 280 q 94 325 144 359 q 148 361 146 366 q 118 412 107 440 q 96 467 96 493 q 96 501 98 519 q 108 604 168 656 q 227 708 313 708 q 394 708 444 662 q 494 617 494 541 q 494 467 458 418 q 421 369 359 328 q 355 325 358 321 q 361 315 369 303 l 403 250 q 407 246 410 251 q 442 288 464 325 q 470 336 480 330 l 574 270 q 583 264 577 254 q 530 179 488 132 q 484 128 486 125 q 498 108 510 89 q 523 70 536 50 l 558 15 q 560 11 560 8 z m 257 501 q 257 492 261 480 q 265 469 277 447 q 280 444 284 446 q 306 463 318 481 q 331 499 331 520 q 331 538 322 548 q 313 558 299 558 q 280 558 268 542 q 257 525 257 501 z m 286 146 q 291 150 288 153 q 276 169 273 175 l 228 240 q 226 244 222 241 q 187 211 187 180 q 187 158 200 144 q 214 129 242 132 q 260 135 286 146 z"},"_":{"x_min":0,"x_max":424,"ha":424,"o":"m -7 12 l 5 112 q 6 117 10 120 q 13 124 18 124 l 397 124 q 408 124 408 112 l 395 12 q 394 7 390 4 q 387 0 382 0 l 3 0 q -2 0 -5 4 q -8 7 -7 12 z"},"v":{"x_min":0,"x_max":442,"ha":442,"o":"m 112 10 l 56 505 l 56 507 q 56 518 68 518 l 219 518 q 229 518 229 507 l 231 258 q 230 255 233 255 q 236 255 236 258 l 299 507 q 302 518 312 518 l 463 516 q 476 516 472 503 l 295 10 q 291 0 280 0 l 124 0 q 113 0 112 10 z"},"O":{"x_min":0,"x_max":464,"ha":464,"o":"m 29 166 q 29 177 31 199 l 68 501 q 80 596 142 652 q 205 708 299 708 q 384 708 434 661 q 483 614 483 533 q 483 523 481 501 l 443 199 q 432 104 368 48 q 305 -8 211 -8 q 126 -8 78 38 q 29 85 29 166 z m 282 192 l 320 508 q 321 513 321 521 q 321 542 311 554 q 301 566 282 566 q 261 566 247 550 q 233 534 230 508 l 191 192 l 190 181 q 190 159 200 146 q 210 134 229 134 q 250 134 264 150 q 278 165 282 192 z"},"(":{"x_min":0,"x_max":333,"ha":333,"o":"m 88 -80 q 17 50 17 221 q 17 278 24 335 q 54 579 191 750 q 197 757 205 757 l 340 757 q 347 757 349 753 q 351 749 347 743 q 296 657 258 558 q 219 460 204 335 q 196 268 196 216 q 196 132 210 62 q 224 -8 247 -73 q 248 -75 248 -78 q 248 -82 245 -84 q 242 -87 237 -87 l 101 -87 q 91 -87 88 -80 z"},"C":{"x_min":0,"x_max":456,"ha":456,"o":"m 29 164 q 29 175 31 197 l 69 504 q 80 598 142 653 q 204 708 296 708 q 380 708 428 662 q 477 617 477 538 q 477 528 475 504 l 474 495 q 473 490 470 486 q 466 483 461 483 l 322 477 q 311 477 312 489 l 316 516 q 318 539 308 552 q 298 566 279 566 q 260 566 247 552 q 234 539 231 516 l 190 183 q 188 161 198 148 q 207 134 226 134 q 245 134 258 148 q 272 161 275 183 l 278 212 q 279 217 282 220 q 286 224 291 224 l 428 218 q 439 218 439 206 l 437 197 q 426 104 364 48 q 301 -8 209 -8 q 125 -8 77 38 q 29 84 29 164 z"},"W":{"x_min":0,"x_max":685,"ha":685,"o":"m 131 11 l 82 687 q 82 700 94 700 l 236 700 q 248 700 248 689 l 251 360 q 251 357 254 357 q 256 357 257 360 l 341 689 q 344 700 355 700 l 468 700 q 479 700 479 689 l 487 360 q 488 357 490 357 q 492 357 492 360 l 573 689 q 574 700 585 700 l 725 700 q 737 700 734 687 l 526 11 q 523 0 512 0 l 388 0 q 377 0 377 11 l 370 353 q 370 356 368 356 q 365 356 364 353 l 280 11 q 277 0 267 0 l 143 0 q 131 0 131 11 z"},"A":{"x_min":0,"x_max":493,"ha":493,"o":"m 297 11 l 295 98 q 296 100 294 102 q 292 103 290 103 l 185 103 q 179 103 179 98 l 157 11 q 154 0 143 0 l 5 0 q -7 0 -3 13 l 220 689 q 223 700 234 700 l 392 700 q 404 700 404 689 l 460 13 l 460 10 q 460 0 449 0 l 308 0 q 297 0 297 11 z m 220 231 l 285 231 q 290 231 290 236 l 283 464 q 283 468 281 468 q 279 468 277 464 l 217 236 q 217 231 220 231 z"},"f":{"x_min":0,"x_max":296,"ha":296,"o":"m 323 505 l 312 414 q 311 409 308 406 q 304 402 299 402 l 252 402 q 247 402 247 397 l 199 12 q 198 7 194 4 q 191 0 186 0 l 49 0 q 44 0 41 4 q 38 7 39 12 l 87 397 q 87 402 82 402 l 56 402 q 51 402 48 406 q 45 409 46 414 l 57 505 q 58 510 62 514 q 65 517 70 517 l 96 517 q 102 517 102 522 l 106 552 q 116 635 162 668 q 209 702 296 702 l 326 701 q 331 701 334 698 q 336 694 335 689 l 324 598 q 322 586 313 586 q 292 585 279 572 q 266 559 264 538 l 262 522 q 262 517 266 517 l 313 517 q 318 517 321 514 q 324 510 323 505 z"},"Q":{"x_min":0,"x_max":453,"ha":453,"o":"m 471 529 q 471 505 469 493 l 434 207 q 425 136 388 84 q 350 32 292 9 q 289 7 287 3 l 277 -80 q 276 -85 272 -88 q 269 -92 264 -92 l 126 -92 q 121 -92 118 -88 q 115 -85 116 -80 l 126 3 q 128 6 123 9 q 79 29 54 72 q 30 115 30 173 q 30 183 32 207 l 67 493 q 79 590 141 649 q 203 708 294 708 q 376 708 424 660 q 471 611 471 529 z m 191 189 l 190 178 q 190 158 199 146 q 208 134 223 134 q 242 134 255 150 q 268 165 271 189 l 310 511 l 311 522 q 311 542 302 554 q 292 566 276 566 q 259 566 246 550 q 233 535 231 511 z"},"w":{"x_min":0,"x_max":615,"ha":615,"o":"m 100 11 l 56 505 l 56 507 q 56 518 68 518 l 199 518 q 210 518 210 507 l 211 257 q 211 254 214 254 q 216 254 217 257 l 281 507 q 282 518 294 518 l 411 518 q 422 518 422 507 l 426 257 q 427 253 430 254 q 432 254 432 257 l 495 507 q 498 518 508 518 l 637 516 q 649 516 645 503 l 481 11 q 478 0 467 0 l 333 0 q 321 0 321 11 l 316 225 q 315 229 313 229 q 311 229 310 225 l 254 11 q 251 0 240 0 l 112 0 q 100 0 100 11 z"},"-":{"x_min":0,"x_max":327,"ha":327,"o":"m 29 231 l 44 349 q 45 354 48 358 q 52 361 57 361 l 321 361 q 326 361 329 358 q 332 354 331 349 l 316 231 q 316 226 312 222 q 308 219 303 219 l 39 219 q 34 219 31 222 q 28 226 29 231 z"},"E":{"x_min":0,"x_max":428,"ha":428,"o":"m 444 558 l 249 558 q 245 558 243 553 l 228 427 q 228 422 232 422 l 339 422 q 344 422 347 418 q 350 415 349 410 l 334 291 q 334 286 330 282 q 326 279 321 279 l 215 279 q 211 279 209 274 l 194 147 q 192 142 198 142 l 393 142 q 398 142 401 138 q 404 135 403 130 l 389 12 q 388 7 384 4 q 380 0 375 0 l 26 0 q 21 0 18 4 q 15 7 16 12 l 99 688 q 100 693 104 696 q 107 700 112 700 l 461 700 q 472 700 472 688 l 457 570 q 456 565 452 562 q 449 558 444 558 z"},"s":{"x_min":0,"x_max":413,"ha":413,"o":"m 15 130 q 15 143 16 150 l 17 156 q 18 161 22 164 q 25 168 30 168 l 160 168 q 165 168 168 164 q 171 161 170 156 l 170 154 q 168 136 178 126 q 189 115 204 115 q 219 115 228 124 q 237 134 237 149 q 237 165 221 174 q 205 184 173 195 l 154 201 q 109 217 78 250 q 47 282 47 338 q 47 353 48 361 q 58 437 113 481 q 168 525 250 525 q 327 525 372 485 q 416 445 416 378 q 416 370 414 352 q 412 341 401 341 l 275 341 q 270 341 267 344 q 264 348 265 353 l 265 361 q 267 377 260 386 q 252 396 238 396 q 221 396 212 384 q 202 371 202 356 q 202 337 220 325 q 239 313 269 303 q 328 283 364 254 q 400 224 400 168 q 400 88 342 40 q 283 -8 190 -8 q 109 -8 62 30 q 15 67 15 130 z"},">":{"x_min":0,"x_max":424,"ha":424,"o":"m 15 49 q 6 49 8 60 l 25 193 q 26 203 35 207 l 258 290 q 264 293 258 296 l 56 379 q 48 383 49 393 l 66 526 q 67 533 71 536 q 75 538 80 535 l 421 368 q 428 364 428 354 l 413 232 q 411 223 402 218 l 21 51 q 17 49 15 49 z"},"l":{"x_min":0,"x_max":213,"ha":213,"o":"m 8 12 l 91 688 q 92 693 96 696 q 99 700 104 700 l 242 700 q 247 700 250 696 q 253 693 252 688 l 169 12 q 168 7 164 4 q 161 0 156 0 l 18 0 q 13 0 10 4 q 7 7 8 12 z"},"8":{"x_min":0,"x_max":433,"ha":433,"o":"m 370 360 q 400 339 411 301 q 419 271 419 239 q 419 229 417 205 q 412 158 389 114 q 361 58 310 25 q 258 -8 196 -8 q 134 -8 90 24 q 46 57 31 114 q 26 135 26 167 q 26 192 28 205 q 34 259 55 299 q 74 338 112 359 q 117 362 113 366 q 82 388 72 427 q 64 456 64 485 q 64 496 66 516 q 72 568 94 606 q 121 656 172 685 q 223 714 285 714 q 345 714 389 686 q 433 659 448 606 q 457 579 457 545 q 457 478 427 428 q 406 390 370 367 q 365 362 370 360 z m 222 500 q 220 475 221 465 q 221 446 228 435 q 236 424 249 424 q 263 424 274 436 q 284 447 288 466 q 294 494 294 499 q 296 522 295 531 q 295 550 288 561 q 281 572 267 572 q 254 572 244 560 q 234 549 229 531 q 225 517 222 500 z m 259 215 q 262 240 261 255 q 262 275 254 286 q 247 298 233 298 q 220 298 210 286 q 199 274 194 254 q 188 223 188 218 q 185 196 185 177 q 185 157 192 146 q 200 134 213 134 q 228 134 238 146 q 249 159 254 180 q 258 201 259 215 z"},"\\":{"x_min":0,"x_max":431,"ha":431,"o":"m 398 10 q 398 0 387 0 l 250 0 q 241 0 239 10 l 96 686 l 96 689 q 96 694 99 697 q 102 700 107 700 l 244 700 q 253 700 255 690 l 398 14 z"},"e":{"x_min":0,"x_max":433,"ha":433,"o":"m 407 213 l 196 213 q 192 213 190 208 l 187 178 q 185 158 192 146 q 200 134 215 134 q 240 134 254 169 q 257 180 268 180 l 400 172 q 405 172 408 168 q 411 165 410 159 q 395 75 342 34 q 290 -8 198 -8 q 114 -8 68 30 q 22 69 22 138 q 22 147 24 165 l 47 352 q 57 430 114 478 q 172 525 263 525 q 346 525 392 486 q 438 446 438 378 q 438 370 436 352 l 420 225 q 420 220 416 216 q 412 213 407 213 z m 207 339 l 203 308 q 201 303 207 303 l 264 303 q 268 303 270 308 l 273 339 q 274 342 274 349 q 274 364 266 374 q 259 383 246 383 q 231 383 220 370 q 209 358 207 339 z"},"b":{"x_min":0,"x_max":439,"ha":439,"o":"m 443 396 q 443 376 440 352 l 417 165 q 396 -8 263 -8 q 207 -8 180 34 q 178 36 176 36 q 174 35 174 32 l 171 12 q 170 7 166 4 q 163 0 158 0 l 20 0 q 15 0 12 4 q 9 7 10 12 l 93 688 q 94 693 98 696 q 101 700 106 700 l 244 700 q 249 700 252 696 q 255 693 254 688 l 229 482 q 229 480 230 480 q 233 480 242 489 q 278 525 328 525 q 443 525 443 396 z m 278 349 q 278 365 270 374 q 263 383 251 383 q 235 383 224 371 q 214 359 211 339 l 192 178 q 191 175 191 168 q 191 153 199 144 q 207 134 220 134 q 235 134 245 146 q 255 158 258 178 l 277 339 q 278 343 278 349 z"},"%":{"x_min":0,"x_max":738,"ha":738,"o":"m 80 524 q 80 573 104 616 q 129 658 170 683 q 211 708 258 708 q 316 708 355 667 q 394 626 394 566 q 394 517 370 474 q 345 432 304 406 q 264 381 218 381 q 158 381 119 422 q 80 463 80 524 z m 114 6 q 114 10 117 14 l 553 692 q 558 700 569 700 l 657 700 q 666 700 666 694 q 666 691 663 686 l 227 8 q 222 0 211 0 l 123 0 q 114 0 114 6 z m 310 556 q 310 585 292 604 q 274 624 247 624 q 214 624 189 597 q 164 570 164 533 q 164 504 182 484 q 200 465 228 465 q 261 465 286 492 q 310 520 310 556 z m 391 133 q 391 182 416 225 q 441 268 482 294 q 523 319 569 319 q 627 319 666 278 q 705 237 705 177 q 705 128 680 86 q 656 43 616 18 q 575 -8 529 -8 q 469 -8 430 32 q 391 73 391 133 z m 622 166 q 622 195 604 215 q 585 235 558 235 q 525 235 500 208 q 475 180 475 144 q 475 115 493 96 q 511 76 539 76 q 572 76 597 102 q 622 129 622 166 z"},"m":{"x_min":0,"x_max":665,"ha":665,"o":"m 666 391 q 666 371 663 348 l 621 12 q 620 7 616 4 q 613 0 608 0 l 470 0 q 465 0 462 4 q 459 7 460 12 l 500 336 q 501 340 501 348 q 501 365 494 374 q 487 383 475 383 q 442 383 436 337 l 396 12 q 395 7 392 4 q 388 0 383 0 l 245 0 q 240 0 237 4 q 234 7 235 12 l 275 336 q 276 340 276 348 q 276 365 269 374 q 262 383 250 383 q 234 383 224 371 q 214 359 211 337 l 171 12 q 170 7 166 4 q 163 0 158 0 l 20 0 q 15 0 12 4 q 9 7 10 12 l 71 505 q 72 510 76 514 q 79 517 84 517 l 222 517 q 227 517 230 514 q 233 510 232 505 l 231 495 q 230 492 232 491 q 234 490 236 492 q 275 525 324 525 q 401 525 427 466 q 427 465 429 465 q 433 465 437 471 q 480 525 549 525 q 666 525 666 391 z"},"#":{"x_min":0,"x_max":607,"ha":607,"o":"m 598 395 l 539 395 q 533 395 533 390 l 513 312 q 511 307 516 307 l 554 307 q 559 307 562 304 q 565 300 564 295 l 550 178 q 549 173 545 170 q 541 166 536 166 l 478 166 q 472 166 472 161 l 441 42 q 438 31 427 31 l 289 31 q 277 31 280 44 l 311 161 q 311 166 308 166 l 248 166 q 242 166 242 161 l 211 42 q 208 31 197 31 l 59 31 q 47 31 50 44 l 81 161 q 81 166 78 166 l 39 166 q 34 166 31 170 q 28 173 29 178 l 43 295 q 44 300 48 304 q 51 307 56 307 l 115 307 q 120 307 122 312 l 142 390 q 142 395 139 395 l 101 395 q 96 395 93 398 q 90 402 91 407 l 105 525 q 106 530 110 534 q 113 537 118 537 l 177 537 q 179 537 181 538 q 183 540 183 542 l 214 662 q 217 673 228 673 l 366 672 q 378 672 375 659 l 344 542 q 344 537 347 537 l 406 537 q 411 537 413 542 l 444 662 q 447 673 458 673 l 596 672 q 608 672 605 659 l 574 542 q 572 537 577 537 l 616 537 q 621 537 624 534 q 627 530 626 525 l 612 407 q 611 402 607 398 q 603 395 598 395 z m 352 312 l 372 390 q 372 395 369 395 l 309 395 q 307 395 305 394 q 303 392 303 390 l 283 312 q 281 307 286 307 l 345 307 q 350 307 352 312 z"},",":{"x_min":0,"x_max":216,"ha":216,"o":"m -5 -93 l 43 147 q 44 152 48 156 q 52 159 57 159 l 176 159 q 182 159 184 156 q 187 152 185 146 l 102 -94 q 97 -105 88 -105 l 6 -105 q -8 -105 -5 -93 z"},"n":{"x_min":0,"x_max":441,"ha":441,"o":"m 442 392 q 442 372 439 349 l 397 12 q 396 7 392 4 q 389 0 384 0 l 246 0 q 241 0 238 4 q 235 7 236 12 l 276 338 q 277 343 277 351 q 277 383 251 383 q 235 383 224 371 q 214 359 211 337 l 171 12 q 170 7 166 4 q 163 0 158 0 l 20 0 q 15 0 12 4 q 9 7 10 12 l 71 505 q 72 510 76 514 q 79 517 84 517 l 222 517 q 227 517 230 514 q 233 510 232 505 l 229 485 q 229 483 231 483 q 234 483 240 489 q 274 525 325 525 q 384 525 413 490 q 442 456 442 392 z"},"h":{"x_min":0,"x_max":441,"ha":441,"o":"m 442 392 q 442 372 439 349 l 397 12 q 396 7 392 4 q 389 0 384 0 l 246 0 q 241 0 238 4 q 235 7 236 12 l 276 338 q 277 343 277 351 q 277 383 251 383 q 235 383 224 371 q 214 359 211 337 l 171 12 q 170 7 166 4 q 163 0 158 0 l 20 0 q 15 0 12 4 q 9 7 10 12 l 93 688 q 94 693 98 696 q 101 700 106 700 l 244 700 q 249 700 252 696 q 255 693 254 688 l 229 485 q 229 483 231 483 q 234 483 240 489 q 274 525 325 525 q 384 525 413 490 q 442 456 442 392 z"},"z":{"x_min":0,"x_max":366,"ha":366,"o":"m -5 12 l 11 142 q 11 147 17 157 l 175 361 q 177 363 176 365 q 176 367 173 367 l 56 367 q 51 367 48 370 q 45 374 46 379 l 61 505 q 62 510 66 514 q 69 517 74 517 l 379 517 q 384 517 387 514 q 390 510 389 505 l 373 375 q 372 367 366 360 l 200 156 q 198 154 198 152 q 199 150 202 150 l 341 150 q 352 150 352 138 l 336 12 q 335 7 332 4 q 328 0 323 0 l 5 0 q 0 0 -3 4 q -6 7 -5 12 z"},"B":{"x_min":0,"x_max":463,"ha":463,"o":"m 222 0 l 26 0 q 21 0 18 4 q 15 7 16 12 l 99 688 q 100 693 104 696 q 107 700 112 700 l 283 700 q 374 700 426 660 q 477 620 477 540 q 477 518 475 506 q 463 410 397 365 q 392 362 395 359 q 451 313 451 231 q 451 221 449 199 q 439 103 376 52 q 312 0 222 0 z m 243 553 l 228 425 q 226 420 232 420 l 250 420 q 281 420 298 442 q 316 465 316 505 q 316 531 304 544 q 291 558 267 558 l 249 558 q 245 558 243 553 z m 292 238 q 292 267 280 284 q 268 301 247 301 l 217 301 q 212 301 212 296 l 194 148 q 192 143 198 143 l 227 143 q 255 143 274 168 q 292 193 292 238 z"},"K":{"x_min":0,"x_max":490,"ha":490,"o":"m 16 12 l 99 688 q 100 693 104 696 q 107 700 112 700 l 250 700 q 255 700 258 696 q 261 693 260 688 l 232 462 q 232 458 234 458 q 236 458 238 461 l 368 691 q 373 700 383 700 l 528 700 q 535 700 537 696 q 539 693 535 686 l 359 392 q 358 391 357 390 q 356 388 357 386 l 459 14 l 460 10 q 460 6 456 3 q 453 0 448 0 l 302 0 q 291 0 289 9 l 231 243 q 230 246 228 246 q 226 246 224 243 l 202 207 q 200 203 200 201 l 177 12 q 176 7 172 4 q 169 0 164 0 l 26 0 q 21 0 18 4 q 15 7 16 12 z"},"R":{"x_min":0,"x_max":467,"ha":467,"o":"m 267 10 l 234 275 q 233 279 229 279 l 215 279 q 211 279 209 274 l 177 12 q 176 7 172 4 q 169 0 164 0 l 26 0 q 21 0 18 4 q 15 7 16 12 l 99 688 q 100 693 104 696 q 107 700 112 700 l 321 700 q 398 700 442 651 q 487 602 487 520 q 487 496 485 483 q 478 427 452 382 q 427 338 388 311 q 386 310 385 308 q 384 307 385 305 l 432 14 l 432 12 q 432 0 421 0 l 279 0 q 268 0 267 10 z m 243 553 l 226 411 q 226 406 230 406 l 257 406 q 287 406 306 430 q 325 455 325 498 q 325 527 312 542 q 299 558 276 558 l 249 558 q 245 558 243 553 z"},"T":{"x_min":0,"x_max":470,"ha":470,"o":"m 515 688 l 501 570 q 500 565 496 562 q 493 558 488 558 l 367 558 q 362 558 362 553 l 295 12 q 295 7 291 4 q 287 0 282 0 l 145 0 q 134 0 134 12 l 201 553 q 201 558 197 558 l 81 558 q 76 558 73 562 q 70 565 71 570 l 85 688 q 86 693 90 696 q 94 700 99 700 l 505 700 q 510 700 513 696 q 516 693 515 688 z"},"P":{"x_min":0,"x_max":459,"ha":459,"o":"m 486 518 q 486 494 484 481 q 472 386 414 328 q 357 271 275 271 l 212 271 q 208 271 206 266 l 175 12 q 174 7 170 4 q 167 0 162 0 l 24 0 q 19 0 16 4 q 13 7 14 12 l 97 688 q 98 693 102 696 q 105 700 110 700 l 320 700 q 396 700 441 650 q 486 601 486 518 z m 323 496 q 323 526 310 542 q 297 558 274 558 l 247 558 q 242 558 242 553 l 223 404 q 223 399 227 399 l 255 399 q 285 399 304 424 q 323 450 323 496 z"},"|":{"x_min":0,"x_max":195,"ha":195,"o":"m -11 -68 l 89 748 q 90 753 94 756 q 97 760 102 760 l 240 760 q 245 760 248 756 q 251 753 250 748 l 150 -68 q 149 -73 146 -76 q 142 -80 137 -80 l -1 -80 q -6 -80 -9 -76 q -12 -73 -11 -68 z"},"t":{"x_min":0,"x_max":290,"ha":290,"o":"m 294 402 l 244 402 q 239 402 239 397 l 213 183 l 212 172 q 212 155 220 148 q 229 142 245 143 l 249 143 q 260 143 260 131 l 245 12 q 244 7 240 4 q 237 0 232 0 l 188 0 q 119 0 84 20 q 48 39 48 93 q 48 101 50 117 l 85 397 q 85 402 80 402 l 49 402 q 44 402 41 406 q 38 409 39 414 l 50 505 q 51 510 54 514 q 58 517 63 517 l 95 517 q 97 517 98 518 q 100 520 100 522 l 114 633 q 114 638 118 642 q 122 645 127 645 l 258 645 q 263 645 266 642 q 269 638 268 633 l 254 522 q 254 517 258 517 l 308 517 q 313 517 316 514 q 319 510 318 505 l 307 414 q 306 409 302 406 q 299 402 294 402 z"},"M":{"x_min":0,"x_max":541,"ha":541,"o":"m 431 700 l 566 700 q 571 700 574 696 q 577 693 576 688 l 493 12 q 492 7 488 4 q 485 0 480 0 l 342 0 q 337 0 334 4 q 331 7 332 12 l 385 441 q 386 445 384 446 q 381 446 379 443 l 296 321 q 292 313 290 313 q 287 313 284 321 l 231 443 q 229 446 228 446 q 226 446 225 442 l 172 12 q 171 7 168 4 q 164 0 159 0 l 21 0 q 16 0 13 4 q 10 7 11 12 l 94 688 q 95 693 98 696 q 102 700 107 700 l 243 700 q 252 700 257 692 l 316 547 q 319 543 322 547 l 416 692 q 420 700 431 700 z"},"g":{"x_min":0,"x_max":438,"ha":438,"o":"m 306 517 l 444 517 q 449 517 452 514 q 455 510 454 505 l 396 30 q 382 -84 322 -146 q 261 -209 121 -209 q 105 -209 69 -207 q 57 -206 59 -194 l 73 -75 q 74 -69 78 -66 q 82 -63 87 -64 l 110 -65 q 176 -65 202 -42 q 227 -18 235 32 q 235 36 233 36 q 231 37 228 34 q 192 -6 136 -6 q 21 -6 21 124 q 21 145 24 167 l 47 352 q 69 525 201 525 q 260 525 284 480 q 285 477 287 478 q 289 478 290 481 l 293 505 q 294 510 298 514 q 301 517 306 517 z m 253 180 l 272 339 q 273 342 273 349 q 273 364 265 374 q 257 383 244 383 q 230 383 220 371 q 209 359 207 339 l 187 180 q 185 160 192 148 q 199 137 214 137 q 229 137 240 149 q 251 161 253 180 z"},"j":{"x_min":0,"x_max":216,"ha":216,"o":"m 84 638 q 84 681 112 709 q 140 737 180 737 q 213 737 234 717 q 254 697 254 664 q 254 621 226 592 q 199 563 158 563 q 125 563 104 584 q 84 605 84 638 z m -107 -190 l -92 -73 q -91 -66 -86 -64 q -82 -62 -73 -62 q -31 -62 -12 -42 q 6 -23 11 15 l 71 505 q 72 510 76 514 q 79 517 84 517 l 222 517 q 227 517 230 514 q 233 510 232 505 l 172 15 q 162 -68 143 -112 q 124 -156 69 -180 q 14 -204 -97 -202 q -102 -202 -105 -198 q -108 -195 -107 -190 z"},"i":{"x_min":0,"x_max":216,"ha":216,"o":"m 83 638 q 83 681 110 709 q 138 737 178 737 q 211 737 232 717 q 252 697 252 664 q 252 621 224 592 q 197 563 156 563 q 123 563 103 584 q 83 605 83 638 z m 10 12 l 71 505 q 72 510 76 514 q 79 517 84 517 l 222 517 q 227 517 230 514 q 233 510 232 505 l 171 12 q 170 7 166 4 q 163 0 158 0 l 20 0 q 15 0 12 4 q 9 7 10 12 z"},"y":{"x_min":0,"x_max":429,"ha":429,"o":"m -13 -187 l 0 -75 q 2 -63 11 -63 q 62 -63 86 -51 q 110 -39 114 -3 l 114 3 l 53 505 l 53 507 q 53 518 66 518 l 214 518 q 224 518 224 507 l 223 244 q 222 241 225 242 q 228 242 229 245 l 290 507 q 293 518 303 518 l 451 516 q 464 516 460 503 l 272 -10 q 243 -85 214 -124 q 186 -162 136 -180 q 86 -199 -3 -199 l -9 -199 q -15 -199 -13 -187 z"},"@":{"x_min":0,"x_max":737,"ha":737,"o":"m 743 416 q 743 373 731 323 q 706 222 646 166 q 586 110 507 110 q 440 110 408 150 q 405 153 401 149 q 383 127 360 119 q 337 111 317 111 q 267 111 244 140 q 221 169 221 209 q 221 217 223 231 l 230 263 l 239 302 q 242 319 247 336 q 252 354 253 358 q 271 422 303 450 q 335 479 385 479 q 416 479 432 455 q 437 449 438 456 l 440 461 q 443 472 453 472 l 536 472 q 548 472 545 459 l 504 295 q 499 278 499 260 q 499 237 509 226 q 519 215 536 215 q 563 215 584 247 q 606 279 618 327 q 627 365 627 397 q 627 475 580 520 q 533 566 455 566 q 389 566 327 530 q 265 495 220 432 q 174 369 154 290 q 144 250 144 212 q 144 154 168 114 q 192 74 230 54 q 267 35 309 35 q 342 35 370 46 q 397 56 424 74 q 428 77 432 77 q 436 77 439 71 l 469 2 q 470 0 470 -3 q 470 -10 463 -14 q 373 -70 278 -70 q 207 -70 150 -39 q 94 -8 62 51 q 30 110 30 189 q 30 236 44 295 q 70 403 136 488 q 201 573 291 621 q 381 669 477 669 q 556 669 616 638 q 676 606 710 549 q 743 492 743 416 z m 382 233 l 397 295 q 406 336 411 351 q 412 355 412 362 q 412 383 392 383 q 380 383 372 374 q 363 366 358 351 l 343 289 l 329 233 q 328 229 328 223 q 328 200 349 200 q 360 200 368 209 q 377 218 382 233 z"},".":{"x_min":0,"x_max":228,"ha":228,"o":""},"p":{"x_min":0,"x_max":442,"ha":442,"o":"m 446 396 q 446 375 443 352 l 420 165 q 398 -8 266 -8 q 209 -8 183 36 q 181 39 179 38 q 177 38 177 35 l 152 -171 q 151 -176 148 -180 q 144 -183 139 -183 l 1 -183 q -4 -183 -7 -180 q -10 -176 -9 -171 l 74 505 q 75 510 78 514 q 82 517 87 517 l 224 517 q 229 517 232 514 q 236 510 235 505 l 232 485 q 232 483 234 483 q 237 483 245 491 q 280 525 331 525 q 446 525 446 396 z m 254 383 q 238 383 227 371 q 216 359 214 339 l 195 178 q 194 175 194 168 q 194 153 202 144 q 210 134 223 134 q 237 134 248 146 q 258 158 260 178 l 280 339 q 282 359 275 371 q 268 383 254 383 z"},"X":{"x_min":0,"x_max":475,"ha":475,"o":"m 4 14 l 175 347 q 176 350 175 353 l 86 686 l 85 690 q 85 694 88 697 q 92 700 97 700 l 237 700 q 246 700 249 690 l 281 525 q 281 521 284 521 q 286 521 287 525 l 358 690 q 363 700 372 700 l 512 700 q 519 700 520 696 q 522 692 519 686 l 348 353 l 347 347 l 436 14 l 437 10 q 437 0 426 0 l 287 0 q 278 0 276 10 l 243 174 q 243 178 241 178 q 239 177 238 174 l 164 10 q 161 0 150 0 l 11 0 q 4 0 2 4 q 1 8 4 14 z"},"*":{"x_min":0,"x_max":351,"ha":351,"o":"m 162 408 l 171 479 q 172 482 170 484 q 168 485 166 483 l 100 447 l 95 445 q 90 445 86 452 l 60 513 q 59 515 59 518 q 59 524 66 529 l 138 568 q 143 571 138 574 l 77 611 q 68 618 74 628 l 115 692 q 119 697 124 698 q 128 700 132 697 l 188 659 q 190 657 192 658 q 193 659 194 662 l 202 733 q 202 738 206 742 q 210 745 215 745 l 281 745 q 286 745 289 742 q 292 738 291 733 l 282 662 q 282 656 288 659 l 351 697 q 355 699 358 699 q 364 699 367 692 l 392 628 q 393 626 393 622 q 393 615 386 611 l 316 574 q 310 570 315 567 l 376 529 q 381 526 381 521 q 381 518 378 513 l 337 448 q 334 443 330 442 q 325 441 320 444 l 266 482 q 264 484 262 483 q 260 482 260 479 l 251 408 q 250 403 246 400 q 243 396 238 396 l 172 396 q 167 396 164 400 q 161 403 162 408 z"},"Y":{"x_min":0,"x_max":477,"ha":477,"o":"m 139 14 l 170 260 l 169 266 l 85 686 l 85 690 q 85 700 96 700 l 241 700 q 250 700 252 689 l 274 469 q 274 465 276 465 q 279 465 280 469 l 355 689 q 360 700 369 700 l 515 700 q 521 700 523 696 q 525 692 522 686 l 332 266 l 331 260 l 300 14 q 300 9 296 6 q 292 2 287 2 l 150 2 q 139 2 139 14 z"},"c":{"x_min":0,"x_max":432,"ha":432,"o":"m 22 138 q 22 147 24 165 l 47 352 q 57 430 114 478 q 172 525 263 525 q 346 525 392 486 q 438 446 438 380 q 438 373 436 355 l 434 333 q 433 328 430 324 q 426 321 421 321 l 282 315 q 271 315 272 327 l 274 342 q 276 359 268 371 q 260 383 246 383 q 231 383 220 370 q 209 358 207 339 l 187 178 q 185 158 192 146 q 200 134 215 134 q 230 134 240 146 q 251 158 253 176 l 255 191 q 256 196 260 200 q 263 203 268 203 l 406 202 q 411 202 414 198 q 417 195 416 190 l 413 163 q 403 83 346 38 q 290 -8 198 -8 q 114 -8 68 30 q 22 69 22 138 z"},"!":{"x_min":0,"x_max":281,"ha":281,"o":"m 88 256 l 123 688 q 125 700 136 700 l 274 700 q 286 700 284 688 l 215 256 q 214 251 210 248 q 207 244 202 244 l 98 244 q 93 244 90 248 q 87 251 88 256 z m 47 76 q 47 118 74 146 q 102 174 143 174 q 175 174 196 154 q 216 134 216 102 q 216 59 188 30 q 161 1 121 1 q 88 1 68 22 q 47 43 47 76 z"},"/":{"x_min":0,"x_max":431,"ha":431,"o":"m -2 14 l 307 690 q 312 700 321 700 l 457 700 q 463 700 466 696 q 468 693 465 686 l 156 10 q 153 0 143 0 l 6 0 q 0 0 -2 4 q -5 7 -2 14 z"},"[":{"x_min":0,"x_max":349,"ha":349,"o":"m -9 -144 l 107 798 q 108 803 112 806 q 115 810 120 810 l 336 810 q 341 810 344 806 q 347 803 346 798 l 332 679 q 331 674 328 670 q 324 667 319 667 l 256 667 q 254 667 252 666 q 251 664 251 662 l 169 -8 q 167 -13 173 -13 l 235 -13 q 240 -13 243 -16 q 246 -20 245 -25 l 231 -144 q 230 -149 226 -152 q 223 -156 218 -156 l 1 -156 q -4 -156 -7 -152 q -10 -149 -9 -144 z"},"6":{"x_min":0,"x_max":437,"ha":437,"o":"m 427 220 l 420 165 q 408 83 350 38 q 291 -8 202 -8 q 118 -8 72 34 q 25 76 28 158 q 28 180 31 205 l 69 527 q 78 610 138 659 q 198 708 287 708 q 364 708 411 666 q 458 624 458 553 q 458 545 456 527 l 451 490 q 450 485 446 482 q 443 478 438 478 l 300 478 q 295 478 292 482 q 289 485 290 490 l 293 516 l 294 526 q 294 541 286 552 q 279 562 269 562 q 254 562 243 550 q 232 537 229 516 l 217 418 q 217 412 223 416 q 261 445 301 445 q 364 445 398 405 q 433 365 433 295 q 433 277 432 268 q 431 255 427 220 z m 265 232 l 270 285 q 271 303 263 314 q 255 325 242 325 q 227 325 216 314 q 206 303 202 284 l 194 232 l 188 176 q 187 156 195 145 q 203 134 218 134 q 233 134 243 146 q 253 157 257 177 z"},"r":{"x_min":0,"x_max":326,"ha":326,"o":"m 358 513 q 364 507 362 498 l 322 357 q 319 346 308 349 q 294 353 284 353 q 267 353 252 347 q 234 341 220 322 q 207 303 204 280 l 171 13 q 170 8 166 4 q 163 1 158 1 l 20 1 q 15 1 12 4 q 9 8 10 13 l 71 505 q 72 510 76 514 q 79 517 84 517 l 222 517 q 227 517 230 514 q 233 510 232 505 l 228 473 q 227 469 228 468 q 230 468 232 471 q 264 524 318 524 q 341 524 358 513 z"},"2":{"x_min":0,"x_max":438,"ha":438,"o":"m 217 142 l 411 142 q 416 142 419 138 q 422 135 421 130 l 407 12 q 406 7 402 4 q 399 0 394 0 l 14 0 q 3 0 3 12 l 18 134 q 19 139 25 149 l 89 217 q 193 326 233 378 q 265 421 282 456 q 298 492 298 525 q 298 566 267 566 q 251 566 239 552 q 227 538 225 516 l 220 473 q 219 468 216 464 q 212 461 207 461 l 67 461 q 62 461 59 464 q 56 468 57 473 l 63 523 q 79 606 142 657 q 205 708 293 708 q 370 708 416 662 q 462 617 462 541 q 462 531 460 509 q 453 455 432 410 q 410 365 368 313 q 335 272 258 193 l 215 148 q 213 146 214 144 q 214 142 217 142 z"},"{":{"x_min":0,"x_max":359,"ha":359,"o":"m 74 -51 q 74 -37 75 -29 l 100 174 q 102 190 102 197 q 102 258 53 263 q 41 264 43 276 l 56 382 q 56 393 69 395 q 127 401 138 483 l 162 683 q 170 742 208 776 q 246 810 306 810 l 398 810 q 403 810 406 806 q 409 803 408 798 l 394 679 q 393 674 390 670 q 386 667 381 667 l 366 667 q 348 667 332 650 q 317 633 314 608 l 296 459 q 284 362 223 332 q 218 329 223 326 q 266 302 266 232 q 266 223 264 199 l 245 46 q 242 21 253 4 q 264 -13 283 -13 l 297 -13 q 302 -13 305 -16 q 308 -20 307 -25 l 293 -144 q 292 -149 288 -152 q 285 -156 280 -156 l 187 -156 q 133 -156 104 -128 q 74 -101 74 -51 z"},"9":{"x_min":0,"x_max":433,"ha":433,"o":"m 193 -8 q 115 -8 68 34 q 22 76 22 148 q 22 156 24 174 l 29 210 q 30 215 34 218 q 37 222 42 222 l 180 222 q 185 222 188 218 q 191 215 190 210 l 187 185 l 186 175 q 186 159 194 148 q 201 138 211 138 q 226 138 237 151 q 248 164 251 185 l 262 281 q 263 284 261 284 q 259 285 257 283 q 221 255 179 255 q 117 255 82 295 q 47 335 47 405 q 47 423 48 432 q 49 447 53 481 q 55 499 61 535 q 72 617 130 662 q 189 708 279 708 q 360 708 406 668 q 453 628 453 549 q 453 525 450 495 l 411 174 q 402 91 342 42 q 282 -8 193 -8 z m 278 416 l 285 468 q 288 492 291 524 q 293 544 285 556 q 277 567 263 567 q 248 567 238 555 q 227 543 222 523 l 219 498 l 215 468 q 214 462 210 416 q 209 397 217 386 q 225 376 239 376 q 254 376 264 386 q 274 397 278 416 z"}," ":{"x_min":0,"x_max":194,"ha":194,"o":""},"I":{"x_min":0,"x_max":228,"ha":228,"o":"m 16 12 l 99 688 q 100 693 104 696 q 107 700 112 700 l 250 700 q 255 700 258 696 q 261 693 260 688 l 177 12 q 176 7 172 4 q 169 0 164 0 l 26 0 q 21 0 18 4 q 15 7 16 12 z"},"H":{"x_min":0,"x_max":469,"ha":469,"o":"m 353 700 l 490 700 q 501 700 501 688 l 418 12 q 417 7 413 4 q 409 0 404 0 l 267 0 q 262 0 259 4 q 256 7 257 12 l 289 274 q 289 279 285 279 l 215 279 q 211 279 209 274 l 177 12 q 176 7 172 4 q 169 0 164 0 l 26 0 q 21 0 18 4 q 15 7 16 12 l 99 688 q 100 693 104 696 q 107 700 112 700 l 250 700 q 255 700 258 696 q 261 693 260 688 l 228 427 q 228 422 232 422 l 302 422 q 306 422 308 427 l 340 688 q 340 693 344 696 q 348 700 353 700 z"},"4":{"x_min":0,"x_max":493,"ha":493,"o":"m 502 310 l 486 184 q 485 179 482 176 q 478 172 473 172 l 441 172 q 436 172 436 167 l 417 12 q 416 7 412 4 q 409 0 404 0 l 266 0 q 261 0 258 4 q 255 7 256 12 l 275 167 q 275 172 270 172 l 24 172 q 19 172 16 176 q 13 179 14 184 l 26 284 q 28 294 30 298 l 202 690 q 207 700 216 700 l 363 700 q 369 700 371 696 q 373 692 371 686 l 220 328 q 217 322 223 322 l 289 322 q 294 322 294 327 l 305 413 q 306 418 310 422 q 313 425 318 425 l 456 425 q 461 425 464 422 q 467 418 466 413 l 455 327 q 455 322 460 322 l 492 322 q 497 322 500 318 q 503 315 502 310 z"},"~":{"x_min":0,"x_max":485,"ha":485,"o":"m 254 216 q 249 220 236 230 q 222 239 212 244 q 201 248 191 248 q 157 248 126 213 q 118 203 110 209 l 41 256 q 33 262 37 272 q 59 323 102 357 q 146 391 193 391 q 214 391 230 384 q 247 378 265 365 q 270 362 284 352 q 297 343 308 338 q 320 334 331 334 q 358 334 386 369 q 393 379 402 373 l 475 322 q 483 315 478 306 q 449 257 408 224 q 367 191 324 191 q 304 191 288 198 q 273 204 254 216 z"},"D":{"x_min":0,"x_max":465,"ha":465,"o":"m 16 12 l 99 688 q 100 693 104 696 q 107 700 112 700 l 297 700 q 383 700 432 655 q 481 610 481 532 q 481 523 479 503 l 441 197 q 430 108 368 54 q 305 0 211 0 l 26 0 q 21 0 18 4 q 15 7 16 12 z m 198 142 l 225 143 q 246 144 262 162 q 278 179 282 208 l 316 492 q 317 497 317 506 q 317 530 306 544 q 294 558 275 558 l 249 558 q 245 558 243 553 l 194 147 q 192 142 198 142 z"},"^":{"x_min":0,"x_max":419,"ha":419,"o":"m 43 308 l 204 690 q 209 700 218 700 l 331 700 q 341 700 343 690 l 413 308 l 413 304 q 413 294 402 294 l 291 294 q 280 294 279 304 l 256 509 q 255 512 253 512 q 251 512 250 509 l 176 304 q 172 294 161 294 l 51 294 q 45 294 43 298 q 41 302 43 308 z"},"0":{"x_min":0,"x_max":443,"ha":443,"o":"m 25 165 q 25 175 27 199 l 64 501 q 76 596 138 654 q 199 712 289 712 q 370 712 417 664 q 464 617 464 536 q 464 513 462 501 l 425 199 q 413 103 352 46 q 290 -12 200 -12 q 119 -12 72 36 q 25 84 25 165 z m 263 189 l 302 511 q 303 516 303 526 q 303 546 295 558 q 287 569 272 569 q 254 569 242 553 q 230 537 227 511 l 187 189 q 186 185 186 176 q 186 156 194 144 q 203 131 218 131 q 235 131 247 147 q 259 163 263 189 z"},"F":{"x_min":0,"x_max":414,"ha":414,"o":"m 444 558 l 249 558 q 245 558 243 553 l 228 427 q 228 422 232 422 l 339 422 q 344 422 347 418 q 350 415 349 410 l 334 291 q 334 286 330 282 q 326 279 321 279 l 215 279 q 211 279 209 274 l 177 12 q 176 7 172 4 q 169 0 164 0 l 26 0 q 21 0 18 4 q 15 7 16 12 l 99 688 q 100 693 104 696 q 107 700 112 700 l 461 700 q 472 700 472 688 l 457 570 q 456 565 452 562 q 449 558 444 558 z"},"`":{"x_min":0,"x_max":227,"ha":227,"o":""},"k":{"x_min":0,"x_max":451,"ha":451,"o":"m 10 12 l 93 688 q 94 693 98 696 q 101 700 106 700 l 244 700 q 249 700 252 696 q 255 693 254 688 l 217 382 q 216 378 218 378 q 220 377 222 380 l 303 508 q 309 517 318 517 l 459 517 q 468 517 468 511 q 468 508 465 503 l 336 324 q 333 321 334 317 l 415 14 l 416 10 q 416 6 412 3 q 409 0 404 0 l 263 0 q 254 0 251 10 l 219 181 q 219 185 216 185 q 214 185 212 182 l 190 147 q 189 146 188 144 q 187 143 187 141 l 171 12 q 170 7 166 4 q 163 0 158 0 l 20 0 q 15 0 12 4 q 9 7 10 12 z"},"u":{"x_min":0,"x_max":441,"ha":441,"o":"m 308 517 l 446 517 q 451 517 454 514 q 457 510 456 505 l 395 12 q 394 7 390 4 q 387 0 382 0 l 244 0 q 239 0 236 4 q 233 7 234 12 l 236 25 q 236 32 230 26 q 213 7 192 0 q 170 -8 142 -8 q 90 -8 56 22 q 22 52 22 115 q 22 123 24 143 l 69 505 q 70 510 74 514 q 77 517 82 517 l 220 517 q 225 517 228 514 q 231 510 230 505 l 190 180 q 189 175 189 167 q 189 135 215 135 q 249 135 255 181 l 295 505 q 296 510 300 514 q 303 517 308 517 z"},"]":{"x_min":0,"x_max":349,"ha":349,"o":"m 271 -156 l 55 -156 q 44 -156 44 -144 l 59 -25 q 60 -20 64 -16 q 67 -13 72 -13 l 134 -13 q 138 -13 140 -8 l 222 662 q 222 667 218 667 l 156 667 q 145 667 145 679 l 160 798 q 161 803 164 806 q 168 810 173 810 l 389 810 q 394 810 398 806 q 401 803 400 798 l 284 -144 q 283 -149 280 -152 q 276 -156 271 -156 z"},"U":{"x_min":0,"x_max":466,"ha":466,"o":"m 35 169 q 35 192 37 204 l 96 688 q 97 693 100 696 q 104 700 109 700 l 247 700 q 252 700 255 696 q 258 693 257 688 l 196 188 l 195 177 q 195 157 204 146 q 214 134 230 134 q 249 134 262 149 q 274 164 277 188 l 339 688 q 339 693 343 696 q 347 700 352 700 l 489 700 q 500 700 500 688 l 440 204 q 428 108 366 50 q 303 -8 212 -8 q 130 -8 82 40 q 35 88 35 169 z"},"o":{"x_min":0,"x_max":439,"ha":439,"o":"m 22 138 q 22 147 24 165 l 47 352 q 57 431 114 478 q 172 525 264 525 q 348 525 394 486 q 441 446 441 378 q 441 370 439 352 l 416 165 q 406 84 349 38 q 292 -8 199 -8 q 115 -8 68 30 q 22 69 22 138 z m 257 179 l 276 339 l 277 348 q 277 364 269 374 q 261 383 247 383 q 231 383 220 371 q 209 359 207 339 l 187 179 q 185 159 193 147 q 201 135 216 135 q 232 135 243 147 q 254 159 257 179 z"},"N":{"x_min":0,"x_max":506,"ha":506,"o":"m 391 700 l 527 700 q 532 700 535 696 q 538 693 537 688 l 454 12 q 454 7 450 4 q 446 0 441 0 l 287 0 q 277 0 275 10 l 221 358 q 221 361 218 362 q 216 362 216 358 l 175 12 q 174 7 170 4 q 167 0 162 0 l 26 0 q 21 0 18 4 q 15 7 16 12 l 99 688 q 100 693 104 696 q 107 700 112 700 l 264 700 q 275 700 277 690 l 331 340 q 331 337 334 337 q 336 337 337 341 l 378 688 q 379 693 382 696 q 386 700 391 700 z"},"+":{"x_min":0,"x_max":424,"ha":424,"o":"m 428 358 l 416 258 q 415 253 412 250 q 408 246 403 246 l 288 246 q 283 246 283 241 l 268 123 q 267 118 264 114 q 260 111 255 111 l 157 111 q 152 111 149 114 q 146 118 147 123 l 162 241 q 162 246 157 246 l 43 246 q 38 246 35 250 q 32 253 33 258 l 45 358 q 46 363 50 366 q 53 370 58 370 l 173 370 q 175 370 176 372 q 178 373 178 375 l 193 494 q 193 499 197 502 q 201 506 206 506 l 304 506 q 309 506 312 502 q 315 499 314 494 l 299 375 q 299 370 303 370 l 418 370 q 423 370 426 366 q 429 363 428 358 z"},"G":{"x_min":0,"x_max":459,"ha":459,"o":"m 28 158 q 28 167 30 189 l 70 512 q 80 602 142 655 q 204 708 296 708 q 380 708 429 663 q 478 618 478 541 q 478 532 476 510 l 471 473 q 470 468 466 464 q 463 461 458 461 l 320 461 q 315 461 312 464 q 309 468 310 473 l 315 512 l 316 522 q 316 542 306 554 q 296 566 279 566 q 260 566 247 551 q 234 536 231 512 l 191 188 l 190 177 q 190 157 200 146 q 210 134 226 134 q 245 134 258 149 q 272 164 275 188 l 283 252 q 285 257 279 257 l 254 257 q 249 257 246 260 q 243 264 244 269 l 257 375 q 257 380 261 384 q 265 387 270 387 l 449 387 q 454 387 457 384 q 460 380 459 375 l 436 189 q 426 99 364 46 q 301 -8 209 -8 q 125 -8 76 36 q 28 81 28 158 z"},"q":{"x_min":0,"x_max":442,"ha":442,"o":"m 306 517 l 444 517 q 449 517 452 514 q 455 510 454 505 l 371 -171 q 370 -176 366 -180 q 363 -183 358 -183 l 220 -183 q 215 -183 212 -180 q 209 -176 210 -171 l 235 35 q 236 38 234 38 q 232 39 229 36 q 193 -8 136 -8 q 21 -8 21 121 q 21 141 24 165 l 47 352 q 68 525 201 525 q 257 525 284 483 q 286 481 288 482 q 290 482 290 485 l 293 505 q 294 510 298 514 q 301 517 306 517 z m 253 178 l 272 339 q 273 342 273 349 q 273 364 265 374 q 257 383 244 383 q 230 383 220 371 q 209 359 207 339 l 187 178 q 185 158 192 146 q 199 134 213 134 q 229 134 240 146 q 251 158 253 178 z"},"d":{"x_min":0,"x_max":439,"ha":439,"o":"m 328 700 l 466 700 q 471 700 474 696 q 477 693 476 688 l 393 12 q 392 7 388 4 q 385 0 380 0 l 242 0 q 237 0 234 4 q 231 7 232 12 l 235 32 q 235 35 233 36 q 231 36 229 34 q 193 -8 136 -8 q 21 -8 21 121 q 21 143 24 165 l 47 352 q 69 525 201 525 q 258 525 284 481 q 286 478 288 478 q 290 479 290 482 l 315 688 q 316 693 320 696 q 323 700 328 700 z m 253 178 l 272 339 q 273 342 273 349 q 273 364 265 374 q 257 383 244 383 q 230 383 220 371 q 209 359 207 339 l 187 178 q 185 158 192 146 q 199 134 213 134 q 229 134 240 146 q 251 158 253 178 z"},"1":{"x_min":0,"x_max":285,"ha":285,"o":"m 172 700 l 314 700 q 319 700 322 696 q 325 693 324 688 l 241 12 q 240 7 236 4 q 233 0 228 0 l 90 0 q 85 0 82 4 q 79 7 80 12 l 145 539 q 145 544 141 544 l 68 540 q 57 540 58 551 l 69 657 q 70 667 80 670 l 157 697 q 164 700 172 700 z"},"5":{"x_min":0,"x_max":436,"ha":436,"o":"m 426 220 l 418 163 q 407 83 348 38 q 289 -8 200 -8 q 117 -8 72 34 q 26 75 26 158 l 28 186 q 30 198 41 198 l 179 198 q 188 198 189 189 l 189 183 l 189 172 q 189 134 217 134 q 250 134 258 175 q 261 190 265 220 q 266 228 267 238 q 268 248 268 259 q 269 277 261 288 q 253 299 238 299 q 211 299 201 275 q 196 264 187 264 l 48 264 q 43 264 40 268 q 37 271 38 276 l 88 688 q 89 693 92 696 q 96 700 101 700 l 469 700 q 474 700 477 696 q 480 693 479 688 l 465 570 q 464 565 460 562 q 457 558 452 558 l 238 558 q 233 558 233 553 l 215 412 q 215 409 217 408 q 219 408 221 410 q 259 442 306 442 q 366 442 399 404 q 432 367 432 299 q 432 289 430 269 q 430 254 426 220 z"}}}
